<?xml version="1.0" encoding="utf-8"?>
<!-- Generator: Adobe Illustrator 15.1.0, SVG Export Plug-In . SVG Version: 6.00 Build 0)  -->
<!DOCTYPE svg PUBLIC "-//W3C//DTD SVG 1.1//EN" "http://www.w3.org/Graphics/SVG/1.1/DTD/svg11.dtd">
<svg version="1.1" xmlns="http://www.w3.org/2000/svg" xmlns:xlink="http://www.w3.org/1999/xlink" x="0px" y="0px" width="288px"
	 height="288px" viewBox="0 0 288 288" enable-background="new 0 0 288 288" xml:space="preserve">
<g id="Layer_3">
	<circle fill="#662D91" cx="142.657" cy="148.662" r="132"/>
</g>
<g id="Layer_2">
	<g>
		<g>
			<path fill="#FFFFFF" d="M46.722,213.246c2.841-1.234,5.9-0.407,8.802,0.161c3.14,0.615,6.226,0.678,9.416,0.678
				c7.902,0,15.786,0.212,23.683,0.463c15.756,0.501,31.472,0.91,47.223,0.042c15.517-0.856,30.885-1.957,46.437-1.272
				c13.348,0.588,26.853,0.504,40.151,1.611c6.945,0.578,17.078,2.505,20.443-5.401c3.251-7.638,2.33-16.697,2.861-24.815
				c0.452-6.913,2.026-19.877-6.868-22.031c-12.19-2.954-25.088-0.497-37.425-0.41c1.125,1.477,2.25,2.954,3.375,4.431
				c1.089-3.608,1.09-6.858,0.361-10.535c-0.319-1.609-1.896-2.437-3.375-2.569c-4.289-0.385-12.977,3.258-16.318,0.303
				c0.342,0.824,0.684,1.649,1.025,2.475c0.013-1.892,0.978-3.15-0.116-5.019c-0.927-1.582-3.391-3.811-5.203-4.296
				c-0.655-0.176-1.272-0.28-1.952-0.222c1.176-0.102,0.745-4.161,0.766-4.919c0.104-3.931-0.982-7.811-0.125-11.719
				c-0.814,0.814-1.63,1.629-2.444,2.444c0.843-0.121,1.687-0.241,2.53-0.361c3.48-0.497,3.22-6.038,0-6.75
				c-3.409-0.754-6.482-0.759-9.812,0.361c1.477,1.125,2.954,2.25,4.431,3.375c0.102-6.038,0.931-12.034,0.361-18.07
				c-1.477,1.125-2.954,2.25-4.431,3.375c1.324,0.199,2.344,0.199,3.668,0c3.908-0.586,2.978-7.145-0.931-6.875
				c-1.234,0.357-2.217-0.024-2.946-1.143c-1.488-1.559-4.493-1.298-5.497,0.708c-0.12,0.241-0.24,0.482-0.361,0.723
				c2.133,0.279,4.265,0.558,6.397,0.836c-1.535-6.135-1.712-12.066-5.74-17.257c-3.752-4.836-8.535-8.718-13.938-11.579
				c0.578,1.007,1.155,2.015,1.733,3.022c0.363-3.766-1.562-6.881-1.978-10.541c-0.355-3.128,1.455-6.288-0.307-9.296
				c-0.3-0.512-0.828-1.072-1.347-1.366c-0.445-0.253-2.27-1.668-1.906-0.805c-0.561-1.332-0.296-3.844-0.425-5.243
				c-0.238-2.597-0.305-5.208-0.543-7.806c-0.337-3.67-6.08-5.074-6.875-0.931c-1.142,5.95-2.415,11.697-1.446,17.763
				c0.815-1.436,1.63-2.871,2.444-4.306c-1.376,0.286-2.599,0.798-3.976,1.084c-2.604,0.542-3.345,4.093-1.544,5.85
				c2.429,2.37,0.772,8.358-0.373,11.031c-1.555,3.629-6.002,5.7-8.882,8.199c-6.066,5.263-9.533,12.542-10.799,20.372
				c1.125-0.856,2.25-1.713,3.375-2.569c-3.968,0.465-6.896,2.4-7.5,6.574c-0.644,4.456,1.729,8.979,0.872,13.343
				c1.435-0.814,2.87-1.629,4.306-2.444c-4.428-0.788-12.632,1.882-10.823,8.033c0.854,2.905,2.181,5.309,2.436,8.39
				c0.318,3.839,0.266,7.924-0.617,11.683c1.435-0.814,2.87-1.63,4.306-2.444c-8.07-1.209-11.794,2.842-10.449,10.81
				c1.125-1.477,2.25-2.954,3.375-4.431c-6.891-0.665-13.617-0.173-20.447,0.85c-1.913,0.286-2.874,2.63-2.444,4.306
				c0.424,1.655,0.29,3.177,0.236,4.851c1.167-1.167,2.333-2.333,3.5-3.5c-13.256,0.082-26.517,1.714-39.755,0.361
				c-1.41-0.145-3.147,1.164-3.375,2.569c-1.43,8.811-1.185,17.623-0.599,26.499c0.248,3.751,0.629,7.431,0.394,11.188
				c-0.198,3.152-0.837,6.644,0.205,9.711c1.444,4.249,8.207,2.425,6.75-1.861c-0.804-2.364-0.132-5.408,0.045-7.85
				c0.231-3.196-0.046-6.314-0.276-9.505c-0.631-8.736-1.179-17.633,0.231-26.321c-1.125,0.856-2.25,1.713-3.375,2.569
				c13.238,1.353,26.499-0.279,39.755-0.361c1.954-0.012,3.438-1.584,3.5-3.5c0.075-2.332,0.094-4.443-0.486-6.712
				c-0.815,1.436-1.63,2.87-2.444,4.306c6.2-0.929,12.34-1.202,18.585-0.6c2.463,0.238,3.718-2.398,3.375-4.431
				c-0.404-2.395-0.586-2.562,1.838-2.198c1.826,0.273,3.832-0.427,4.306-2.444c1.038-4.424,1.117-9.027,0.867-13.544
				c-0.097-1.754-0.33-3.522-0.758-5.225c-0.436-1.732-3.421-5.107,0.284-4.447c1.763,0.313,3.914-0.45,4.306-2.444
				c0.41-2.091-1.417-14.626-0.122-14.778c1.435-0.168,3.11-0.931,3.375-2.569c0.869-5.373,2.608-10.195,6.141-14.401
				c3.23-3.847,7.912-6.021,11.108-9.843c4.466-5.341,6.413-16.893,1.006-22.169c-0.515,1.95-1.03,3.9-1.544,5.85
				c1.376-0.286,2.599-0.798,3.976-1.084c2.014-0.419,2.729-2.522,2.444-4.306c-0.75-4.7,0.565-9.451,1.446-14.041
				c-2.292-0.311-4.583-0.621-6.875-0.931c0.357,3.885,0.625,7.798,0.769,11.695c0.091,2.465,0.648,5.09,2.801,6.556
				c0.732,0.499,1.482,0.93,2.259,1.355c-1.489-0.814-1.122,2.372-1.258,3.485c-0.514,4.212,2.33,7.858,1.934,11.964
				c-0.111,1.156,0.735,2.494,1.733,3.022c4.468,2.366,8.264,5.422,11.564,9.25c3.704,4.295,3.588,10.172,4.897,15.404
				c0.708,2.831,5.029,3.571,6.397,0.836c0.12-0.241,0.24-0.482,0.361-0.723c-1.833,0.236-3.665,0.472-5.497,0.708
				c2.2,2.305,4.686,3.414,7.896,3.193c-0.311-2.292-0.62-4.583-0.931-6.875c0.019,0,0.036,0,0.055,0
				c-2.034-0.305-4.666,0.883-4.431,3.375c0.569,6.036-0.26,12.032-0.361,18.07c-0.037,2.186,2.278,4.099,4.431,3.375
				c2.144-0.721,3.853-0.856,6.09-0.361c0-2.25,0-4.5,0-6.75c-0.843,0.121-1.687,0.241-2.53,0.361
				c-1.118,0.16-2.212,1.384-2.444,2.444c-1.245,5.674-0.215,11.758-0.203,17.535c0.005,2.102,0.596,4.701,2.178,6.208
				c0.676,0.644,1.25,1.186,2.157,1.483c1.113,0.366,2.371,0.997,1.105-0.136c0.236,0.183,0.472,0.365,0.708,0.548
				c1.101,1.117,1.393,1.02,0.876-0.295c-0.248,0.953-0.434,1.703-0.44,2.692c-0.015,2.079,1.849,3.328,3.434,4.284
				c5.392,3.253,13.14-0.575,18.859-0.062c-1.125-0.856-2.25-1.713-3.375-2.569c0.49,2.472,0.358,4.428-0.361,6.812
				c-0.657,2.178,1.139,4.446,3.375,4.431c11.563-0.082,22.942-1.723,34.461-0.041c2.228,0.325,2.18,0.682,2.69,2.81
				c0.489,2.039,0.412,4.256,0.413,6.337c0.003,4.119-0.521,8.217-0.587,12.332c-0.058,3.589-0.142,7.175-0.64,10.735
				c-0.252,1.803-0.602,3.732-1.318,5.416c-0.72,1.69-2.383,1.462-4.017,1.536c-4.509,0.203-9.076-0.4-13.564-0.758
				c-5.737-0.457-11.539-0.146-17.295-0.352c-13.556-0.482-27.027-1.591-40.604-1.132c-13.584,0.46-27.116,1.825-40.712,2.008
				c-13.847,0.186-27.711-0.513-41.549-0.92c-6.994-0.205-14.443,0.629-21.339-0.585c-5.113-0.899-9.307-1.578-14.196,0.544
				C39.058,208.995,42.626,215.024,46.722,213.246L46.722,213.246z"/>
		</g>
	</g>
	<g>
		<g>
			<path fill="#FFFFFF" d="M89.539,202.994c3.61-1.513,8.028-0.219,11.816,0.098c4.363,0.363,8.746,0.471,13.122,0.531
				c8.877,0.123,17.756-0.242,26.633-0.268c8.709-0.024,17.418,0.101,26.127,0.025c9.655-0.083,19.636-1.478,29.225-0.025
				c4.414,0.668,6.312-6.076,1.861-6.75c-9.109-1.379-18.254-0.468-27.417-0.277c-9.294,0.193-18.593,0.039-27.887,0.026
				c-9.515-0.013-19.026,0.335-28.542,0.269c-5.001-0.035-9.997-0.271-14.98-0.687c-4.043-0.337-7.939-1.317-11.819,0.308
				C83.579,197.961,85.376,204.737,89.539,202.994L89.539,202.994z"/>
		</g>
	</g>
	<g>
		<g>
			<path fill="#FFFFFF" d="M187.882,165.688c-1.741,3.354-1.69,7.541-1.74,11.226c-0.059,4.246,0.156,8.628,1.026,12.794
				c0.923,4.417,7.67,2.543,6.75-1.861c-0.675-3.229-0.734-6.594-0.776-9.881c-0.033-2.536-0.431-6.404,0.785-8.744
				C196.004,165.222,189.963,161.682,187.882,165.688L187.882,165.688z"/>
		</g>
	</g>
	<g>
		<g>
			<path fill="#FFFFFF" d="M181.395,189.5c-0.131-7.181-2.396-15.274,0.236-22.198c1.607-4.228-5.162-6.037-6.75-1.861
				c-2.891,7.603-0.629,16.201-0.486,24.06C174.477,194.009,181.477,194.017,181.395,189.5L181.395,189.5z"/>
		</g>
	</g>
	<g>
		<g>
			<path fill="#FFFFFF" d="M161.509,167.663c2.259,7.594-0.562,16.023,0.723,23.852c0.729,4.446,7.475,2.554,6.75-1.861
				c-1.299-7.911,1.604-16.029-0.723-23.852C166.975,161.486,160.219,163.325,161.509,167.663L161.509,167.663z"/>
		</g>
	</g>
	<g>
		<g>
			<path fill="#FFFFFF" d="M156.457,189.5c-0.134-7.102-2.102-14.562,0.236-21.476c1.45-4.288-5.312-6.113-6.75-1.861
				c-2.57,7.6-0.633,15.549-0.486,23.337C149.542,194.009,156.542,194.017,156.457,189.5L156.457,189.5z"/>
		</g>
	</g>
	<g>
		<g>
			<path fill="#FFFFFF" d="M127.05,167.816c-0.45,7.51-0.726,15.211,0.848,22.614c0.938,4.414,7.686,2.542,6.75-1.861
				c-1.434-6.749-1.008-13.909-0.598-20.753C134.32,163.306,127.319,163.332,127.05,167.816L127.05,167.816z"/>
		</g>
	</g>
	<g>
		<g>
			<path fill="#FFFFFF" d="M116.332,167.247c-2.563,7.027-0.255,15.017-0.125,22.253c0.081,4.509,7.081,4.517,7,0
				c-0.117-6.526-2.425-14.086-0.125-20.392C124.632,164.857,117.866,163.042,116.332,167.247L116.332,167.247z"/>
		</g>
	</g>
	<g>
		<g>
			<path fill="#FFFFFF" d="M102.96,166.524c-1.857,7.8,0.136,16.161,0.236,24.06c0.058,4.511,7.058,4.517,7,0
				c-0.091-7.158-2.164-15.154-0.486-22.198C110.755,163.997,104.006,162.135,102.96,166.524L102.96,166.524z"/>
		</g>
	</g>
	<g>
		<g>
			<path fill="#FFFFFF" d="M90.311,168.386c1.111,7.725,2.255,15.479,1.321,23.282c-0.536,4.477,6.47,4.425,7,0
				c1.008-8.415-0.374-16.82-1.571-25.144C96.421,162.071,89.676,163.972,90.311,168.386L90.311,168.386z"/>
		</g>
	</g>
	<g>
		<g>
			<path fill="#FFFFFF" d="M126.936,111.684c9.214-0.153,18.899-2.881,27.982-0.487c4.37,1.152,6.223-5.601,1.861-6.75
				c-9.829-2.59-19.897,0.072-29.844,0.237C122.426,104.759,122.419,111.759,126.936,111.684L126.936,111.684z"/>
		</g>
	</g>
	<g>
		<g>
			<path fill="#FFFFFF" d="M161.745,134.566c0.292,5.549-0.312,11.079-0.361,16.625c-0.04,4.516,6.96,4.512,7,0
				c0.05-5.547,0.653-11.077,0.361-16.625C168.509,130.076,161.508,130.053,161.745,134.566L161.745,134.566z"/>
		</g>
	</g>
	<g>
		<g>
			<path fill="#FFFFFF" d="M152.349,134.566c-0.026,4.701-0.336,9.395-0.362,14.096c-0.025,4.516,6.975,4.513,7,0
				c0.026-4.701,0.336-9.395,0.362-14.096C159.374,130.051,152.374,130.053,152.349,134.566L152.349,134.566z"/>
		</g>
	</g>
	<g>
		<g>
			<path fill="#FFFFFF" d="M141.867,133.843c0.062,3.945,1.118,8.202,0.125,12.08c-1.12,4.376,5.632,6.231,6.75,1.861
				c1.179-4.604,0.198-9.278,0.125-13.941C148.797,129.333,141.796,129.327,141.867,133.843L141.867,133.843z"/>
		</g>
	</g>
	<g>
		<g>
			<path fill="#FFFFFF" d="M134.041,132.913c-0.831,2.317-0.481,4.922-0.217,7.308c0.233,2.096,1.293,5.81,0.208,7.759
				c-2.197,3.948,3.85,7.478,6.044,3.533c1.398-2.513,1.339-5.359,1.097-8.145c-0.227-2.625-1.295-6.05-0.383-8.594
				C142.318,130.514,135.553,128.696,134.041,132.913L134.041,132.913z"/>
		</g>
	</g>
	<g>
		<g>
			<path fill="#FFFFFF" d="M124.158,133.843c0,5.903,0,11.806,0,17.709c0,4.514,7,4.514,7,0c0-5.903,0-11.806,0-17.709
				C131.158,129.329,124.158,129.329,124.158,133.843L124.158,133.843z"/>
		</g>
	</g>
	<g>
		<g>
			<path fill="#FFFFFF" d="M116.207,134.205c0.023,4.822,0.337,9.636,0.362,14.458c0.023,4.513,7.023,4.515,7,0
				c-0.025-4.822-0.339-9.636-0.362-14.458C123.185,129.692,116.185,129.689,116.207,134.205L116.207,134.205z"/>
		</g>
	</g>
	<g>
		<g>
			<path fill="#FFFFFF" d="M208.973,195.893c2.374-0.692,5.655,0.267,8.093,0.454c4.562,0.351,9.122,0.621,13.699,0.659
				c4.516,0.037,4.512-6.963,0-7c-5.151-0.042-10.278-0.396-15.412-0.791c-2.736-0.21-5.537-0.86-8.241-0.072
				C202.787,190.403,204.629,197.159,208.973,195.893L208.973,195.893z"/>
		</g>
	</g>
	<g>
		<g>
			<path fill="#FFFFFF" d="M54.67,194.143c2.412,2.147,6.129,1.633,9.124,1.51c5.802-0.239,11.661-0.27,17.457,0.109
				c4.509,0.295,4.48-6.707,0-7c-5.07-0.332-10.137-0.216-15.214-0.197c-1.09,0.004-2.182,0.086-3.271,0.13
				c-0.717,0.028-1.435,0.044-2.153,0.046c-1.105,0.014-2.208-0.629-0.992,0.453C56.261,186.202,51.292,191.136,54.67,194.143
				L54.67,194.143z"/>
		</g>
	</g>
	<g>
		<g>
			<path fill="#FFFFFF" d="M55.673,182.185c8.384-0.116,16.95-1.935,25.312-0.781c4.413,0.608,6.316-6.136,1.861-6.75
				c-9.086-1.253-18.07,0.405-27.173,0.531C51.163,175.247,51.157,182.247,55.673,182.185L55.673,182.185z"/>
		</g>
	</g>
	<g>
		<g>
			<path fill="#FFFFFF" d="M205.911,183.824c8.091,0.286,16.182,0.023,24.274,0c4.514-0.013,4.515-7.013,0-7
				c-8.093,0.023-16.184,0.286-24.274,0C201.395,176.664,201.41,183.665,205.911,183.824L205.911,183.824z"/>
		</g>
	</g>
</g>
</svg>
