<?xml version="1.0" encoding="utf-8"?>
<!-- Generator: Adobe Illustrator 15.1.0, SVG Export Plug-In . SVG Version: 6.00 Build 0)  -->
<!DOCTYPE svg PUBLIC "-//W3C//DTD SVG 1.1//EN" "http://www.w3.org/Graphics/SVG/1.1/DTD/svg11.dtd">
<svg version="1.1" xmlns="http://www.w3.org/2000/svg" xmlns:xlink="http://www.w3.org/1999/xlink" x="0px" y="0px" width="792px"
	 height="612px" viewBox="0 0 792 612" enable-background="new 0 0 792 612" xml:space="preserve">
<g id="pink">
	<g>
		<g>
			<path fill="#EC008C" d="M51,121.5c4.938,0.614,9.91,4.988,14.55,6.808c1.896,0.743,4.652,1.875,6.465,0.302
				c1.379-1.196,1.751-3.271,2.556-4.839c2.007-3.91,6.395-5.952,10.491-6.831c9.81-2.106,20.96,0.298,30.611,2.122
				c9.71,1.835,19.282,4.304,28.91,6.515c13.079,3.003,26.873,3.899,40.187,5.494c15.222,1.824,30.47,3.422,45.743,4.747
				c15.426,1.337,30.88,2.321,46.35,2.982c15.669,0.67,31.221,0.822,46.832,2.479c12.758,1.354,25.501,2,38.251,0.216
				c6.228-0.872,12.377-2.295,18.533-3.563c6.465-1.332,14.006-3.478,20.607-2.265c3.895,0.716,7.186,3.599,11.094,4.549
				c5.126,1.246,10.014-0.447,14.877-1.894c6.32-1.88,13.001-0.056,19.16,1.645c6.799,1.878,13.427,4.215,20.385,5.481
				c-0.299-0.734-0.598-1.469-0.896-2.203c-2.458,4.27-30.138,19.569-18.108,26.482c5.512,3.168,13.3,0.643,18.857-1.122
				c6.649-2.111,13.169-5.296,18.889-9.271c3.072-2.135,3.906-4.184,4.479-7.809c0.628-3.977,8.123-7.239,9.808-2.393
				c1.587,4.563,0.639,11.021,5.436,13.938c2.621,1.594,4.082,1.853,6.207-0.263c2.807-2.795,6.393-4.803,9.965-6.44
				c8.049-3.688,19.318-4.621,23.317,5.032c0.482-0.633,0.964-1.266,1.446-1.899c-18.26,2.434-35.956,10.61-42.66,28.904
				c-3.389,9.245-2.764,19.528-0.786,28.995c1.655,7.924,4.97,18.429,12.081,23.198c6.688,4.486,16.997,2.358,21.877-4.085
				c5.687-7.509,2.102-17.633,1.174-26.067c-0.588-5.346-1.271-10.81-1.323-16.194c-0.074-7.694,3.898-18.154,12.723-19.225
				c6.413-0.779,8.523,8.869,8.516,13.454c-0.008,4.82-3.096,9.363-3.44,14.194c-0.199,2.801,0.691,5.891,3.876,6.639
				c3.609,0.848,6.425-1.536,9.496-3.071c3.875-1.938,13.519,0.216,13.677,5.615c0.104,3.568-2.533,7.397-3.805,10.63
				c-2.524,6.417-2.023,15.81,4.965,19.32c7.032,3.532,15.965-5.557,20.651-9.573c8.323-7.134,18.965-11.934,25.299-21.148
				c2.327-3.386,1.355-7.69,2.976-11.328c2.002-4.493,4.042-8.827,8.079-11.855c3.92-2.94,8.938-4.393,13.512-5.948
				c4.853-1.65,10-3.664,14.606-5.959c3.515-1.752,6.487-5.41,6.57-9.479c0.06-2.946-0.623-5.685-1-8.594
				c-0.556-4.286,3.342-7.36,6.569-9.33c8.903-5.431,20.36-4.06,29.491-9.042c6.923-3.778,11.932-9.095,11.373-17.319
				c-0.551-8.1-3.572-15.471-3.184-23.715c0.343-7.267,2.196-20.231,11.728-20.255c3.852-0.01,5.845,5.082,7.389,7.957
				c2.3,4.282,4.226,8.766,6.214,13.196c1.488,3.317,2.899,6.312,5.234,9.124c1.256,1.512,2.812,2.757,4.366,3.943
				c2.849,2.173,1.606,4.198,0.245,7.16c-4.292,9.34-15.52,12.44-17.148,23.401c-1.525,10.255,4.771,19.049,4.883,29.046
				c0.137,12.139-12.153,18.163-22,20.958c-7.875,2.236-11.825,6.925-13.422,14.968c-1.227,6.177-0.524,12.738-1.144,18.998
				c-0.318,3.229-0.88,6.681-2.563,9.506c-2.475,4.153-7.487,0.467-10.033-1.579c-0.914-0.735-2.091-0.461-2.507,0.662
				c-2.413,6.507,4.676,12.048,8.462,16.308c3.091,3.479,5.774,7.633,3.689,12.334c-1.697,3.827-5.44,3.197-8.607,1.965
				c-2.435-0.947-8.766-4.982-9.984-0.251c-2.04,7.92,3.533,17.223,8.202,23.06c7.714,9.646,17.33,19.611,9.29,32.25
				c-2.886,4.537-7.178,8.196-10.891,12.032c-3.53,3.646-6.288,7.751-9.023,12.004c-6.632,10.312-12.521,21.146-17.396,32.396
				c-4.2,9.695-7.93,20.25-7.819,30.945c0.119,11.477,5.506,22.67,10.703,32.625c5.38,10.304,11.531,20.193,17.034,30.433
				c3.084,5.739,6.029,11.553,8.618,17.534c2.498,5.77,5.423,12.573,4.938,18.998c-0.623,8.264-13.681,1.193-17.013-0.53
				c-9.353-4.839-15.503-14.413-20.589-23.256c-8.71-15.143-17.108-36.628-36.715-39.86c-9.401-1.551-15.338,7.034-24.047,8.066
				c-9.466,1.121-16.778-7.305-25.911-8.133c-5.729-0.519-11.906,1.625-17.416,2.887c-7.493,1.715-14.944,3.605-22.478,5.145
				c-4.577,0.935-19.485,1.202-19.775,8.312c-0.362,8.9,9.17,12.471,15.258,16.298c2.134,1.341,6.302,6.709,0.757,7.298
				c-2.289,0.242-5.008-1.294-6.972-2.21c-4.913-2.293-8.384-2.999-13.94-3.031c-7.421-0.043-14.841,0.799-22.248,1.149
				c-6.574,0.311-12.922,0.536-19.392,1.863c-11.056,2.268-21.233,7.451-29.988,14.492c-8.435,6.784-15.769,15.215-18.249,25.901
				c-1.746,7.525-0.766,26.412-13.135,23.371c-9.357-2.301-16.97-12.625-22.478-19.947c-6.257-8.317-12.268-16.806-19.141-24.64
				c-6.088-6.938-13.238-13.88-22.134-16.951c-8.957-3.093-15.719,1.751-22.729,6.67c-4.416,3.099-9.232,4.439-14.282,1.849
				c-4.644-2.382-7.496-8.468-9.925-12.805c-5.265-9.399-9.924-17.33-18.669-24.021c-7.708-5.896-16.11-8.988-25.782-9.537
				c-11.953-0.679-23.935,1.293-35.914,0.87c-16.231-0.572-32.276-4.072-47.903-8.295c-13.398-3.62-26.203-7.327-37.281-16.008
				c-8.7-6.816-15.825-15.443-23.572-23.268c-8.202-8.283-17.598-14.069-26.858-20.979c-7.911-5.903-14.416-13.173-19.067-21.89
				c-5.481-10.271-8.058-21.806-11.372-32.876c-5.094-17.016-9.517-34.253-11.477-51.94c-1.986-17.924-1.442-36.006,0.789-53.874
				c2.233-17.89,6.247-35.521,10.043-53.126c1.774-8.228,3.499-16.466,5.038-24.742c0.63-3.391,1.405-6.8,1.465-10.258
				c0.07-4.06-1.906-6.973,2.091-9.935c1.536-1.139,0.042-3.744-1.514-2.591c-2.943,2.181-4.377,4.369-4.032,8.106
				c0.664,7.187-0.872,13.899-2.256,20.957c-2.902,14.791-6.349,29.468-9.289,44.251c-5.858,29.455-8.545,59.083-4.357,88.967
				c2.141,15.275,6.225,30.223,10.607,44.983c3.172,10.684,5.867,21.513,10.678,31.616c3.84,8.064,9.408,15.003,16.095,20.882
				c8.641,7.597,18.87,12.878,27.341,20.729c8.169,7.571,15.252,16.223,23.509,23.707s17.807,12.976,28.504,16.123
				c15.019,4.418,30.082,8.503,45.592,10.809c13.729,2.041,27.244,1.756,41.043,0.983c10.343-0.578,20.408-0.459,29.769,4.519
				c10.667,5.672,17.332,14.749,22.932,25.058c4.096,7.541,8.468,16.479,17.786,17.948c8.928,1.407,14.853-7.465,22.5-10.213
				c10.148-3.646,20.498,5.987,26.914,12.515c7.825,7.96,14.298,17.167,20.922,26.112c6.372,8.604,26.577,34.892,37.679,18.864
				c2.128-3.072,2.48-7.562,3.044-11.129c0.858-5.43,1.573-10.87,3.471-16.059c2.078-5.682,7.13-10.532,11.358-14.693
				c4.708-4.632,10.142-8.424,15.956-11.525c12.504-6.669,25.64-7.27,39.446-8.039c7.352-0.41,14.668-1.093,22.039-0.897
				c5.28,0.14,9.308,3.185,14.21,4.726c5.944,1.869,12.076-4.533,7.15-9.737c-2.736-2.892-6.463-4.535-9.898-6.431
				c-3.93-2.169-10.933-9.703-4.067-12.319c4.555-1.736,9.77-2.022,14.51-3.07c7.508-1.66,14.989-3.403,22.479-5.145
				c6.23-1.449,13.024-3.732,19.434-2.348c4.244,0.917,7.815,3.849,11.806,5.439c3.871,1.543,8.543,2.905,12.747,2.082
				c4.278-0.837,7.823-3.187,11.548-5.324c10.346-5.937,20.728-0.025,27.987,7.935c13.425,14.722,17.681,35.819,33.585,48.664
				c6.306,5.093,26.974,15.599,26.842-0.237c-0.052-6.144-2.693-12.421-5.056-17.975c-2.592-6.093-5.572-12.003-8.692-17.84
				c-5.328-9.966-11.193-19.62-16.57-29.558c-5.979-11.048-11.763-23.439-10.932-36.306c0.794-12.287,6.46-24.473,11.817-35.337
				c5.127-10.394,10.938-21.203,18.116-30.35c8.662-11.038,22.516-19.207,16.91-35.275c-2.538-7.274-8.81-12.812-13.395-18.773
				c-2.704-3.515-4.288-7.188-5.33-11.479c-0.173-0.708-1.719-7.143-0.233-6.904c3.484,0.56,6.315,3.183,9.945,3.487
				c3.892,0.326,7.219-2.011,8.457-5.744c1.658-5-0.408-9.226-3.465-13.168c-2.999-3.868-11.037-9.269-8.952-14.892
				c-0.836,0.221-1.671,0.441-2.507,0.662c4.026,3.237,10.041,6.834,14.167,1.771c3.785-4.646,3.729-12.342,3.971-17.994
				c0.33-7.696-0.786-18.028,6.64-22.806c3.164-2.036,7.322-2.576,10.854-3.729c4.398-1.437,8.21-3.84,11.527-7.044
				c7.525-7.269,8.098-16.108,5.221-25.585c-1.556-5.125-3.171-10.029-3.222-15.449c-0.065-7.042,3.947-11.221,9.001-15.4
				c3.909-3.232,6.495-6.437,8.62-11.061c1.062-2.309,2.431-5.64,0.403-7.858c-2.794-3.056-6.308-4.798-8.371-8.647
				c-1.965-3.667-3.501-7.59-5.23-11.371c-2.312-5.055-5.659-15.452-12.122-16.496c-7.045-1.138-11.485,4.314-13.748,10.248
				c-2.492,6.536-2.935,14.457-2.149,21.36c0.944,8.307,6.411,17.881-0.224,25.115c-7.709,8.406-20.134,8.177-30.266,11.337
				c-4.11,1.282-7.836,3.382-10.853,6.464c-3.711,3.792-3.248,7.736-2.354,12.608c1.697,9.255-5.903,11.527-12.858,14.061
				c-4.973,1.811-9.985,3.766-14.856,5.846c-7.587,3.24-12.432,9.57-15.047,17.32c-0.571,1.692-0.812,3.332-0.934,5.105
				c-0.232,3.387-1.865,5.638-4.169,8.083c-4.588,4.869-10.284,8.066-15.658,11.965c-5.333,3.87-18.402,19.474-25.334,12.959
				c-7.539-7.086,0.385-16.692,2.055-24.216c1.668-7.511-7.159-10.814-13.142-11.226c-3.909-0.269-6.966,2.922-10.444,4.058
				c-6.354,2.074-0.908-12.626-0.361-14.724c1.818-6.975-1.072-17.305-8.633-19.525c-9.339-2.742-16.888,10.094-17.746,17.533
				c-1.241,10.757,1.414,21.883,2.707,32.542c0.736,6.077-0.044,11.666-5.59,15.171c-5.685,3.594-11.908,3.489-16.67-1.309
				c-7.668-7.725-10.013-22.147-10.183-32.494c-0.174-10.564,3.532-20.617,11.062-28.076c8.152-8.076,19.905-11.62,30.998-13.098
				c0.847-0.113,1.862-0.895,1.446-1.899c-6.082-14.682-23.741-10.242-34.242-3.184c-2.412,1.622-4.09,5.044-6.917,2.831
				c-2.346-1.836-2.604-5.685-3.03-8.396c-0.685-4.344-2.365-8.931-7.699-8.045c-3.032,0.503-5.721,1.481-7.603,3.966
				c-0.792,1.047-0.976,2.627-1.171,3.869c-0.546,3.457-2.554,4.895-5.408,6.752c-6.027,3.922-12.977,6.702-19.899,8.535
				c-3.565,0.943-8.213,2.058-11.771,0.548c-4.657-1.976,0.926-7.513,2.803-9.24c4.839-4.453,12.415-7.624,15.786-13.48
				c0.45-0.782,0.076-2.026-0.896-2.203c-12.563-2.286-25.497-9.537-38.506-7.749c-6.595,0.907-11.457,4.064-18.354,1.831
				c-4.708-1.525-7.725-4.232-12.94-4.255c-13.759-0.061-27.422,5.339-41.061,6.784c-15.288,1.62-30.533-0.872-45.733-2.171
				c-15.621-1.334-31.446-0.987-47.112-1.832c-15.34-0.827-30.657-2.046-45.949-3.512c-27.149-2.603-54.928-4.792-81.488-11.123
				c-9.542-2.274-19.116-4.443-28.823-5.9c-7.871-1.181-16.169-2.083-24.032-0.395c-5.745,1.233-10.368,5.072-12.518,10.485
				c-1.329,3.348-5.115,0.476-7.549-0.686c-3.861-1.843-7.991-4.992-12.334-5.531C49.083,118.262,49.106,121.265,51,121.5L51,121.5z
				"/>
		</g>
	</g>
</g>
<g id="blue">
	<g>
		<g>
			<path fill="#00AEEF" d="M53.601,116.446c6.178,1.53,11.372,6.224,17.595,7.268c6.94,1.165,14.229-0.264,21.178-0.691
				c7.663-0.472,15.153,1.251,22.646,2.628c7.16,1.316,14.315,2.642,21.524,3.66c29.826,4.21,59.286-2.823,89.144-2.889
				c32.117-0.07,63.9,8.014,95.95,9.729c32.635,1.746,65.307,2.732,97.97,3.783c15.132,0.487,30.264,0.988,45.393,1.566
				c-0.482-0.633-0.964-1.266-1.446-1.899c-2.58,6.513-13.134,7.117-17.796,11.96c-4.974,5.166-2.3,13.137,3.115,16.606
				c7.17,4.594,17.854,3.811,25.599,1.411c10.784-3.34,17.862-13.276,29.571-14.424c9.34-0.917,19.586-1.525,28.827,0.394
				c3.401,0.706,8.649,4.393,4.535,7.468c-3.153,2.356-7.212,3.651-10.762,5.275c-8.602,3.938-13.101,9.956-14.978,19.288
				c-1.978,9.832-1.395,20.549-0.92,30.524c0.435,9.12,1.188,19.15,7.756,26.083c5.712,6.03,14.497,5.453,20.135-0.173
				c4.987-4.978,5.716-12.412,5.188-19.032c-0.629-7.863-2.217-15.637-3.156-23.464c-0.926-7.707-1.639-15.987,0.755-23.498
				c2.476-7.77,12.309-12.388,19.8-8.315c5.497,2.989,1.246,15.391,1.787,20.335c0.636,5.81,5.973,10.666,11.867,9.987
				c1.685-0.194,5.26-1.997,6.433-0.244c2.847,4.251,1.003,11.867-0.34,16.346c-1.896,6.32-5.711,13.771-0.046,19.243
				c6.788,6.559,18.495,5.671,25.496,0.305c3.505-2.686,6.173-6.338,8.801-9.841c4.299-5.73,8.604-11.384,12.494-17.409
				c3.973-6.152,7.667-12.481,11.58-18.671c3.427-5.419,9.208-7.942,14.582-10.981c7.617-4.308,11.9-10.741,10.569-19.582
				c-0.702-4.666-0.984-7.734,2.601-11.374c5.348-5.429,13.465-7.573,20.569-9.536c10.429-2.882,21.166-5.779,29.286-13.392
				c5.648-5.294,5.854-14.047,6.777-21.196c0.583-4.521,0.623-9.573,2.511-13.796c2.393-5.354,10.118,0.161,13.165,2.041
				c7.5,4.629,14.329,13.4,18.717,20.886c5.403,9.218-7.119,20.273-12.588,26.593c-5.711,6.598-10.177,14.359-7.374,23.305
				c1.187,3.787,3.38,7.097,4.225,11.021c1.389,6.447-1.685,12.01-7.258,14.995c-3.983,2.133-8.529,3.083-12.661,4.885
				c-4.958,2.163-8.86,5.511-12.014,9.907c-5.452,7.6-3.293,17.201-2.746,25.811c0.303,4.762,0.565,12.089-3.027,15.71
				c-2.916,2.94-5.632,2.94-5.153,7.602c0.207,2.017,1.366,4.008,2.229,5.805c1.055,2.197,0.329,4.551,0.333,6.842
				c0.003,1.596,0.252,3.208,0.016,4.798c-0.481,3.246-5.807,2.513-8.054,2.399c-1.034-0.053-1.626,0.992-1.446,1.899
				c2.394,12.066,13.462,20.637,14.016,33.17c0.585,13.258-10.545,19.186-18.677,27.431c-17.05,17.289-32.653,42.732-31.653,67.823
				c0.481,12.076,6.384,23.27,12.512,33.372c5.784,9.537,11.724,19.014,17.662,28.455c7.566,12.028,24.739,41.646,0.775,47.33
				c-4.205,0.997-8.131-3.163-10.609-5.928c-4.421-4.932-7.847-10.8-11.282-16.431c-7.594-12.443-14.793-25.523-25.17-35.929
				c-4.219-4.229-9.145-7.748-14.785-9.787c-8.056-2.91-16.872-0.798-24.729,1.694c-5.397,1.713-10.674,3.737-16.15,5.199
				c-6.55,1.747-13.081,1.77-19.8,1.581c-14.515-0.409-28.994-2.195-43.264-4.827c-0.747-0.138-1.688,0.194-1.845,1.048
				c-1.319,7.144,3.869,11.529,9.141,15.355c3.241,2.353,6.771,4.532,9.222,7.769c3.423,4.516,1.41,10.335-4.564,10.103
				c-4.363-0.17-8.796-2.275-12.81-3.816c-5.323-2.044-10.931-2.841-16.575-3.516c-13.1-1.566-26.223,0.044-38.644,4.407
				c-11.666,4.099-23.412,10.212-32.855,18.23c-4.308,3.658-7.92,8.053-10.969,12.792c-3.441,5.35-4.423,12.07-5.732,18.174
				c-1.672,7.796-7.253,22.443-17.459,22.112c-6.486-0.21-10.878-9.539-13.395-14.35c-3.515-6.719-6.235-13.819-9.709-20.558
				c-4.044-7.844-11.173-13.657-18.596-18.212c-8.652-5.309-18.651-7.229-28.606-8.248c-11.939-1.224-23.5-0.81-34.287-6.828
				c-18.003-10.045-28.771-30.298-48.7-37.352c-11.103-3.929-23.732-3.648-35.34-3.972c-13.407-0.374-26.008-1.779-38.937-5.527
				c-27.186-7.882-53.678-22.647-76.005-39.938c-9.953-7.707-18.586-16.83-25.087-27.641c-3.658-6.084-5.893-12.396-7.441-19.296
				c-1.472-6.56-2.776-13.038-5.909-19.048c-6.6-12.66-16.497-22.688-21.459-36.307c-5.191-14.247-6.902-29.46-6.055-44.543
				c0.856-15.25,5.376-28.237,12.617-41.55c6.042-11.111,13.042-22.33,15.606-34.89c1.793-8.786-0.303-18.219-2.007-26.848
				c-1.872-9.477-5-20.253-1.55-29.707c0.665-1.822-2.235-2.6-2.893-0.798c-3.471,9.512-0.643,20.333,1.267,29.881
				c1.186,5.932,2.334,11.862,2.712,17.91c0.419,6.708-1.213,12.793-3.58,19.012c-4.876,12.809-12.973,24.121-18.498,36.638
				c-5.433,12.307-6.946,25.865-6.913,39.212c0.035,14.225,3.035,28.31,8.316,41.485c4.902,12.23,14.537,21.832,20.597,33.456
				c3.204,6.146,4.033,13.491,5.608,20.156c1.546,6.54,4.328,12.318,7.776,18.054c6.095,10.136,14.463,18.652,23.624,26.038
				c20.667,16.66,45.245,30.009,70.204,38.935c12.087,4.323,24.564,7.169,37.38,7.92c12.899,0.756,25.937,0.159,38.69,2.567
				c21.756,4.108,33.976,25.028,51.3,36.783c18.738,12.714,42.595,5.529,62.573,15.136c8.778,4.221,16.876,11.031,21.363,19.735
				c3.496,6.78,6.242,13.919,9.78,20.682c2.762,5.28,6.296,11.374,11.887,14.063c5.496,2.644,10.827-0.682,14.661-4.568
				c8.542-8.66,8.816-19.931,12.332-30.906c4.192-13.084,17.631-22.232,29.27-28.127c13.268-6.72,26.599-11.401,41.598-11.748
				c7.169-0.166,14.321,0.783,21.34,2.161c4.487,0.882,8.669,3.002,13.01,4.403c4.027,1.301,9.134,2.447,12.848-0.225
				c3.243-2.335,3.594-7.549,2.008-10.923c-3.91-8.319-21.18-12.531-19.259-22.933c-0.615,0.35-1.229,0.699-1.845,1.048
				c14.557,2.685,29.264,4.405,44.061,4.935c6.473,0.231,12.72,0.069,19.06-1.313c6.528-1.425,12.767-4.013,19.121-6.028
				c9.469-3.004,18.552-3.754,27.257,1.436c6.899,4.112,12.28,10.686,16.965,17.078c9.252,12.627,15.912,27.006,25.523,39.369
				c2.908,3.74,6.569,7.713,11.334,8.912c5.553,1.398,12.4-3.12,15.398-7.461c9.568-13.854-3.422-33.275-10.834-45.06
				c-5.769-9.17-11.461-18.406-17.146-27.633c-7.165-11.63-12.974-24.118-12.01-38.088c1.856-26.933,20.57-50.404,39.847-67.594
				c7.321-6.528,11.327-14.438,10.155-24.42c-1.355-11.554-11.638-19.642-13.887-30.978c-0.482,0.633-0.964,1.266-1.446,1.899
				c3.312,0.168,7.398,0.412,9.85-2.268c1.861-2.034,1.262-5.452,1.188-7.93c-0.053-1.822,0.561-3.548,0.326-5.338
				c-0.291-2.218-1.781-4.365-2.585-6.4c-1.768-4.479,4.781-5.591,6.221-9.394c3.458-9.131,0.67-18.948,0.733-28.331
				c0.04-5.819,2.527-10.574,6.571-14.643c4.389-4.416,10.259-5.923,15.926-7.998c8.354-3.058,13.476-8.368,13.312-17.64
				c-0.066-3.707-1.68-7.146-3.212-10.438c-2.703-5.809-2.744-11.328,0.363-17.104c4.77-8.863,13.651-14.838,18.104-24.056
				c3.625-7.505,0.213-12.964-4.467-18.979c-5.057-6.498-28.148-32.293-33.738-13.916c-2.688,8.837-1.152,18.794-4.788,27.397
				c-4.144,9.803-18.763,13.621-27.857,16.083c-9.592,2.597-23.617,5.595-28.298,15.644c-1.211,2.601-0.841,5.461-0.376,8.185
				c0.981,5.75,0.272,10.283-4.174,14.524c-3.789,3.614-9.159,5.472-13.5,8.318c-5.016,3.29-7.736,8.313-10.807,13.304
				c-7.339,11.928-14.841,23.732-23.854,34.492c-3.833,4.576-8.43,7.808-14.557,7.99c-5.596,0.167-13.667-2.657-13.518-9.24
				c0.092-3.994,2.177-8.101,3.309-11.875c1.42-4.735,1.541-9.378,0.825-14.258c-0.917-6.256-5.019-5.659-9.9-4.652
				c-10.189,2.102-9.236-10.859-8.581-16.912c0.651-6.008,0.108-12.004-6.437-14.061c-6.271-1.971-14.17,0.277-18.37,5.264
				c-9.078,10.781-4.185,30.147-2.325,42.574c0.923,6.17,2.77,13.556,1.168,19.758c-1.475,5.708-4.776,11.215-11.157,11.974
				c-6.256,0.745-11.161-5.079-13.057-10.367c-3.392-9.463-2.844-20.559-2.84-30.478c0.005-10.955-0.203-25.132,10.305-31.605
				c5.392-3.321,14.298-4.604,17.836-10.292c3.415-5.49-5.798-9.826-9.743-10.516c-9.042-1.58-18.76-0.974-27.854-0.163
				c-10.66,0.95-17.635,8.288-26.685,13.003c-7.767,4.047-35.461,6.362-30.728-9.422c1.305-4.351,7.754-6.202,11.403-7.856
				c3.609-1.636,6.903-3.67,8.412-7.48c0.376-0.949-0.561-1.865-1.446-1.899c-32.822-1.254-65.657-2.132-98.48-3.356
				c-16.261-0.606-32.517-1.318-48.765-2.203c-16.274-0.886-32.375-3.343-48.519-5.493c-15.677-2.088-31.425-4.18-47.268-4.001
				c-15.562,0.176-31.06,2.122-46.536,3.573c-15.06,1.412-29.699,0.807-44.627-1.591c-13.979-2.246-27.759-6.248-42.008-5.16
				c-5.906,0.451-13.761,2.26-19.427-0.156c-5.044-2.15-9.595-5.229-14.971-6.56C52.521,113.088,51.724,115.982,53.601,116.446
				L53.601,116.446z"/>
		</g>
	</g>
</g>
<g id="purple">
	<g>
		<g>
			<path fill="#904199" d="M56,113.5c4.518,0.365,9.199,4.623,12.787,7.077c4.854,3.32,9.698,6.013,15.193,8.144
				c13.592,5.268,28.483,4.738,42.752,3.733c30.604-2.156,61.42-5.086,92.126-4.155c15.775,0.479,31.466,2.402,46.813,6.106
				c13.759,3.32,27.013,7.339,41.115,9.179c14.123,1.842,28.461,2.702,42.688,1.708c13.988-0.977,27.541-5.258,41.183-8.197
				c7.305-1.574,14.685-2.616,22.159-2.809c8.75-0.226,17.557,1.385,26.194,2.557c6.118,0.83,12.182,1.773,18.36,1.506
				c2.691-0.117,5.425-0.237,8.097,0.186c1.257,0.199,2.206,1.066,3.214,1.778c0.864,0.6,1.7,1.237,2.507,1.912
				c0.516,0.693,0.649,0.642,0.401-0.154c-2.613,1.726-4.253,3.485-5.397,6.466c-1.427,3.717-3.862,6.955-5.369,10.633
				c-2.846,6.952,2.396,9.75,8.644,10.876c12.922,2.329,23.415-5.256,35.436-8.291c7.7-1.943,16.164-2.481,24.075-2.667
				c3.345-0.079,16.956-0.565,12.014,5.703c-5.801,7.358-15.655,10.397-21.938,17.308c-2.099,2.309-3.314,5.208-4.341,8.111
				c-2.227,6.295-3.839,12.867-5.841,19.243c-3.663,11.666-4.338,23.25,4.138,32.961c7.363,8.438,17.488,4.86,24.05-2.353
				c8.163-8.973,6.71-22.311,7.325-33.49c0.43-7.818,0.977-16.98,4.7-23.979c1.021-1.918,2.531-3.347,4.623-3.958
				c3.556-1.039,4.69,2.983,5.339,5.439c0.875,3.316,2.11,6.713,5.645,7.99c4.091,1.478,7.353-1.492,11.347-0.686
				c3.781,0.763,5.671,5.144,6.719,8.345c2.098,6.404,2.598,13.317,3.707,19.934c1.71,10.203,6.074,23.173,18.943,17.314
				c18.48-8.414,22.114-30.116,31.683-46.052c6.586-10.97,16.452-16.222,28.446-19.667c4.957-1.423,9.479-3.338,13.585-6.508
				c5.45-4.206,9.011-10.719,12.9-16.286c6.659-9.53,14.097-18.776,19.971-28.814c4.234-7.235,7.952-14.771,12.808-21.629
				c4.076-5.757,10.257-12.029,16.377-5.101c7.067,8.001,9.894,20.934,6.709,31.022c-2.584,8.188-8.657,14.904-12.75,22.335
				c-4.296,7.801-6.018,16.447-2.799,24.937c2.021,5.329,5.485,10.214,6.024,16.012c0.647,6.958-5.465,10.919-11.22,12.565
				c-9.406,2.69-18.396,3.959-20.918,15.088c-2.103,9.282,8.146,26.682-5.444,30.966c-7.16,2.258-15.114,0.888-18.019,9.735
				c-2.826,8.612,7.172,18.517,11.071,25.16c7.573,12.901,7.28,27.86,3.73,41.849c-6.203,24.447-19.321,46.428-26.931,70.397
				c-3.688,11.615-5.687,23.699-5.302,35.896c0.446,14.154,5.57,27.47,9.714,40.847c3.679,11.873,12.944,21.264,16.108,33.316
				c1.254,4.779,1.465,11.838-4.283,13.506c-6.033,1.751-13.777-2.635-18.011-6.43c-6.676-5.983-9.235-15.677-12.913-23.54
				c-3.917-8.376-8.396-16.038-14.446-23.073c-11.806-13.727-29.126-23.959-47.672-22.729c-10.236,0.68-20.504,5.304-30.404,7.844
				c-8.884,2.278-18.27,3.753-26.871,6.983c-10.202,3.831-5.551,15.031-5.053,23.398c0.5-0.5,1-1,1.5-1.5
				c-15.406-0.951-30.774-3.419-46.234-3.23c-15.324,0.187-29.774,4.598-43.185,11.87c-11.833,6.418-21.436,14.094-27.581,26.302
				c-6.979,13.865-5.296,30.759-14.295,43.802c0.684-0.18,1.368-0.359,2.052-0.538c-9.222-6.963-10.55-20.496-15.527-30.27
				c-2.727-5.354-7.358-9.873-11.401-14.232c-5.33-5.745-11.302-10.777-16.817-16.317c-7.112-7.145-16.973-18.846-28.011-19.386
				c-5.537-0.271-10.512,1.224-15.637,3.184c-6.351,2.429-11.813,3.556-18.614,2.391c-19.11-3.272-26.801-25.314-42.844-33.999
				c-10.849-5.872-24.238-3.661-35.918-2.267c-15.842,1.892-31.045,4.123-46.881,0.867c-14.797-3.042-28.864-9.064-42.854-14.594
				c-5.999-2.371-11.998-4.498-18.149-6.424c-3.287-1.028-7.18-2.104-8.935-5.335c-1.733-3.19-1.433-7.821-1.667-11.323
				c-0.335-5.004,0.374-9.943-0.349-14.949c-1.42-9.838-10.925-17.961-20.362-19.654c-5.384-0.967-10.994-0.119-16.43-0.562
				c-7.648-0.622-14.051-4.532-18.003-11.04c-2.902-4.778-4.218-10.497-5.576-15.859c-1.858-7.34-3.152-14.848-4.352-22.318
				c-5.073-31.59-5.44-63.473,0.557-94.939c4.127-21.659,9.006-43.754,16.402-64.538c3.218-9.042,7.316-18.038,7.809-27.723
				c0.353-6.925-2.048-17.615,2.1-23.659c1.098-1.6-1.504-3.098-2.591-1.514c-2.161,3.149-2.272,7.262-2.413,10.949
				c-0.243,6.396,0.342,12.814-0.521,19.182c-0.922,6.803-4.327,13.775-6.643,20.203c-2.752,7.637-5.372,15.306-7.195,23.225
				c-3.596,15.613-7.639,31.11-10.553,46.875c-2.829,15.302-3.927,30.482-3.874,46.022c0.05,14.432,1.424,28.852,3.482,43.126
				c1.859,12.894,3.848,26.604,8.908,38.7c4.102,9.805,12.065,15.008,22.462,16.31c6.153,0.771,12.308-0.461,18.401,1.046
				c6.774,1.675,13.048,8.253,15.036,14.833c2.605,8.625-0.322,18.184,1.963,27.005c1.616,6.235,8.44,7.896,13.834,9.54
				c28.29,8.625,53.851,24.005,84.409,22.04c15.396-0.99,30.497-4.408,45.998-3.798c10.29,0.405,18.594,8.457,25.022,15.616
				c5.919,6.593,11.438,13.587,19.156,18.187c8.384,4.995,18.415,5.493,27.443,2.24c4.748-1.711,9.242-3.672,14.335-4.091
				c5.738-0.472,11.137,2.943,15.583,6.167c4.497,3.26,8.397,7.382,12.291,11.315c4.562,4.61,9.495,8.844,14.078,13.442
				c4.219,4.233,8.205,8.691,11.967,13.334c3.511,4.332,5.306,9.781,7.159,14.96c2.738,7.65,5.496,15.556,12.209,20.624
				c0.688,0.52,1.631,0.072,2.052-0.538c7.829-11.347,8.195-25.794,12.184-38.614c4.322-13.891,15.114-22.864,27.333-29.706
				c13.853-7.756,28.474-11.991,44.36-12.185c14.968-0.182,29.91,2.327,44.828,3.248c0.782,0.048,1.547-0.72,1.5-1.5
				c-0.239-4.018-0.776-7.984-1.265-11.976c-0.303-2.474-0.748-5.423,1.477-7.139c2.927-2.257,7.371-2.93,10.857-3.78
				c7.415-1.809,14.835-3.596,22.223-5.517c6.903-1.796,13.647-4.204,20.556-5.941c6.882-1.732,14.109-1.129,20.891,0.698
				c12.872,3.469,23.768,12.541,32.116,22.621c8.149,9.837,12.393,21.628,17.706,33.051c4.501,9.676,12.113,16.791,22.882,18.555
				c7.587,1.243,12.511-3.13,12.862-10.606c0.529-11.251-7.703-21.537-12.831-30.85c-3.389-6.154-5.185-12.857-7.305-19.518
				c-2.441-7.67-4.867-15.406-5.853-23.419c-1.599-12.99,0.293-26.052,3.853-38.559c6.888-24.204,20.003-46.104,26.987-70.297
				c3.71-12.847,4.778-24.919,0.614-37.792c-1.594-4.928-3.688-9.288-6.541-13.598c-3.204-4.84-7.482-9.918-8.262-15.86
				c-1.484-11.329,14.323-7.803,19.956-12.179c8.93-6.938,4.356-18.5,3.547-27.662c-1.335-15.1,14.961-14.076,24.422-18.583
				c8.514-4.055,9.126-13.966,5.75-21.632c-2.444-5.552-5.74-10.897-5.621-17.151c0.096-4.982,1.913-9.734,4.206-14.084
				c3.828-7.263,9.184-13.544,12.362-21.173c3.506-8.414,2.514-17.773-1.16-25.955c-2.564-5.71-6.354-14.266-13.852-14.112
				c-5.897,0.121-10.396,6.465-13.424,10.741c-4.832,6.825-8.492,14.418-12.706,21.621c-6.03,10.304-13.771,19.813-20.607,29.598
				c-4.485,6.419-8.501,12.909-15.521,16.814c-5.206,2.896-11.41,3.764-16.952,5.844c-21.077,7.912-25.992,29.668-35.723,47.51
				c-4.075,7.472-11.369,15.99-20.508,16.834c-6.285,0.581-8.261-7.197-9.355-11.897c-2.499-10.736-0.975-28.255-11.976-34.548
				c-3.212-1.837-6.529-0.268-9.745,0.521c-6.171,1.514-6.369-7.411-8.361-10.954c-3.806-6.77-11.644-1.422-14.136,3.261
				c-9.925,18.653,3.229,46.684-15.94,60.46c-6.547,4.705-13.27,0.855-17.233-4.972c-4.975-7.315-4.227-15.666-2.096-23.807
				c1.692-6.468,3.946-12.811,5.777-19.245c1.185-4.163,2.597-8.12,5.689-11.248c3.346-3.384,34.101-20.098,18.692-25.794
				c-6.262-2.314-14.23-1.257-20.692-0.686c-9.172,0.811-17.834,2.306-26.407,5.798c-6.257,2.548-12.363,5.097-19.229,5.188
				c-3.709,0.049-13.047-0.597-11.422-6.265c0.986-3.438,3.384-6.594,4.935-9.799c0.96-1.985,1.535-4.026,3.154-5.621
				c0.872-0.858,2.325-1.2,3.004-2.259c1.152-1.801-0.658-3.339-1.99-4.354c-4.273-3.257-6.97-4.078-12.352-4.021
				c-14.675,0.157-28.922-3.356-43.562-3.955c-14.149-0.579-28.136,3.172-41.767,6.445c-14.515,3.486-28.659,5.231-43.594,4.836
				c-12.017-0.318-24.005-1.707-35.822-3.875c-12.19-2.237-23.895-6.29-36.007-8.849c-24.052-5.083-48.824-5.289-73.281-4.201
				c-24.983,1.111-50.033,4.406-75.041,4.466c-12.111,0.029-24.565-2.301-35.084-8.539C69.768,118.021,63.306,111.09,56,110.5
				C54.07,110.344,54.085,113.346,56,113.5L56,113.5z"/>
		</g>
	</g>
</g>
</svg>
