<?xml version="1.0" encoding="utf-8"?>
<!-- Generator: Adobe Illustrator 15.1.0, SVG Export Plug-In . SVG Version: 6.00 Build 0)  -->
<!DOCTYPE svg PUBLIC "-//W3C//DTD SVG 1.1//EN" "http://www.w3.org/Graphics/SVG/1.1/DTD/svg11.dtd">
<svg version="1.1" xmlns="http://www.w3.org/2000/svg" xmlns:xlink="http://www.w3.org/1999/xlink" x="0px" y="0px" width="288px"
	 height="288px" viewBox="0 0 288 288" enable-background="new 0 0 288 288" xml:space="preserve">
<g id="Layer_3">
	<circle fill="#00AEEF" cx="142.657" cy="148.662" r="132"/>
</g>
<g id="Layer_4">
	<g>
		<g>
			<path fill="#FFFFFF" d="M77.5,81c3.89,49.581,2.065,99.346,4,149c0.175,4.499,7.176,4.516,7,0c-1.935-49.654-0.11-99.419-4-149
				C84.149,76.531,77.146,76.497,77.5,81L77.5,81z"/>
		</g>
	</g>
	<g>
		<g>
			<path fill="#FFFFFF" d="M88.767,236.022c16.768-9.999,40.008-8.526,58.719-7.578c19.613,0.992,39.021,3.864,58.515,6.056
				c4.482,0.504,4.434-6.502,0-7c-20.404-2.293-40.7-5.231-61.235-6.188c-19.206-0.896-42.4-1.549-59.532,8.666
				C81.361,232.287,84.88,238.34,88.767,236.022L88.767,236.022z"/>
		</g>
	</g>
	<g>
		<g>
			<path fill="#FFFFFF" d="M80.931,82.375C103.218,74.21,126.152,73.5,149.6,73.5c11.169,0,23.059-1.351,33.869,1.881
				c7.987,2.388,15.377,7.511,23.601,8.994c4.413,0.796,6.299-5.95,1.861-6.75c-8.159-1.472-15.724-6.435-23.601-8.994
				c-11.308-3.674-24.024-2.131-35.73-2.131c-24.031,0-47.691,0.759-70.53,9.125C74.867,77.165,76.682,83.931,80.931,82.375
				L80.931,82.375z"/>
		</g>
	</g>
	<g>
		<g>
			<path fill="#FFFFFF" d="M202.5,83c0.045,27.839,1.672,55.582-1.136,83.347c-1.122,11.09-2.417,22.159-2.896,33.303
				c-0.429,9.99-0.423,20.798,3.157,30.281c1.579,4.181,8.348,2.37,6.75-1.861c-3.395-8.99-3.241-18.954-2.907-28.42
				c0.394-11.139,1.755-22.225,2.896-33.303c2.858-27.755,1.181-55.516,1.136-83.347C209.493,78.486,202.493,78.485,202.5,83
				L202.5,83z"/>
		</g>
	</g>
	<g>
		<g>
			<path fill="#FFFFFF" d="M99.5,98c0-0.015,0-0.03,0-0.045c0-4.514-7-4.514-7,0c0,5.682,0,11.363,0,17.045
				c0,1.924,1.592,3.479,3.5,3.5c6.693,0.074,13.324,0.811,20,0c1.701-0.207,3.754-1.445,3.5-3.5
				c-0.987-7.971-0.12-16.082-2.125-23.931c-0.498-1.95-2.462-2.805-4.306-2.444c-4.991,0.977-9.975,1.778-15.069,1.875
				c-4.508,0.085-4.517,7.086,0,7c5.707-0.108,11.339-1.031,16.931-2.125c-1.436-0.815-2.871-1.63-4.306-2.444
				c1.842,7.211,0.967,14.734,1.875,22.069c1.167-1.167,2.333-2.333,3.5-3.5c-6.676,0.811-13.307,0.074-20,0
				c1.167,1.167,2.333,2.333,3.5,3.5c0-5.682,0-11.363,0-17.045c0-4.514-7-4.514-7,0c0,0.015,0,0.03,0,0.045
				C92.5,102.514,99.5,102.514,99.5,98L99.5,98z"/>
		</g>
	</g>
	<g>
		<g>
			<path fill="#FFFFFF" d="M92.5,137c0.085,6.016,0.915,11.984,1,18c0.033,2.283,2.209,3.969,4.431,3.375
				c6.304-1.684,12.583-1.871,19.069-1.875c2.457-0.001,3.737-2.22,3.375-4.431c-1.043-6.361-1.656-12.642-0.875-19.069
				c0.229-1.884-1.765-3.519-3.5-3.5c-7.045,0.076-13.972,1.123-20.931,2.125c-4.454,0.642-2.552,7.386,1.861,6.75
				c6.347-0.915,12.646-1.806,19.069-1.875c-1.167-1.167-2.333-2.333-3.5-3.5c-0.856,7.045-0.016,13.97,1.125,20.931
				c1.125-1.477,2.25-2.954,3.375-4.431c-7.099,0.004-14.038,0.284-20.931,2.125c1.477,1.125,2.954,2.25,4.431,3.375
				c-0.085-6.016-0.915-11.984-1-18C99.436,132.49,92.436,132.484,92.5,137L92.5,137z"/>
		</g>
	</g>
	<g>
		<g>
			<path fill="#FFFFFF" d="M94.625,178.069c-0.871,4.683-0.25,9.216-0.125,13.931c0.05,1.894,1.554,3.518,3.5,3.5
				c7.68-0.07,15.32-0.93,23-1c1.81-0.017,3.63-1.582,3.5-3.5c-0.468-6.917-1.409-16.103-7.858-20.272
				c-7.002-4.527-15.672-1.018-22.408,2.25c-4.061,1.971-0.51,8.006,3.533,6.045c3.865-1.875,11.07-5.562,15.228-2.337
				c3.922,3.043,4.204,9.856,4.505,14.314c1.167-1.167,2.333-2.333,3.5-3.5c-7.68,0.07-15.32,0.93-23,1
				c1.167,1.167,2.333,2.333,3.5,3.5c-0.106-4.005-0.866-8.09-0.125-12.069C102.196,175.519,95.45,173.636,94.625,178.069
				L94.625,178.069z"/>
		</g>
	</g>
	<g>
		<g>
			<path fill="#FFFFFF" d="M133.475,106.475c1.639-1.733,5.636-1.993,7.956-2.35c5.039-0.776,10.231-0.857,15.319-0.875
				c4.725-0.016,9.454,0.203,14.154,0.676c1.747,0.176,3.476,0.446,5.192,0.809c0.985,0.208,2.391,0.698,2.429,0.74
				c3.047,3.342,7.983-1.622,4.949-4.95c-2.139-2.346-6.167-2.74-9.103-3.167c-5.83-0.847-11.736-1.088-17.622-1.108
				c-5.75-0.02-11.485,0.33-17.181,1.125c-3.701,0.517-8.345,1.297-11.044,4.15C125.426,104.802,130.368,109.76,133.475,106.475
				L133.475,106.475z"/>
		</g>
	</g>
	<g>
		<g>
			<path fill="#FFFFFF" d="M134,147.5c13.12-0.106,26.201-1.574,39.069,1.875c4.366,1.17,6.217-5.583,1.861-6.75
				c-13.496-3.617-27.167-2.237-40.931-2.125C129.488,140.537,129.484,147.537,134,147.5L134,147.5z"/>
		</g>
	</g>
	<g>
		<g>
			<path fill="#FFFFFF" d="M130.069,183.375c5.499,2.195,10.526,0.599,16.041-0.67c3.239-0.745,7.148,1.928,10.361,2.611
				c11.161,2.371,22.757-4.009,33.598,0.059c4.235,1.589,6.047-5.18,1.861-6.75c-5.491-2.061-11.001-1.869-16.731-1.032
				c-5.78,0.844-11.37,0.907-17.199,0.907c-3.05,0-6.061-2.394-9.069-2.875c-5.953-0.953-10.968,3.408-17,1
				C127.734,174.95,125.93,181.723,130.069,183.375L130.069,183.375z"/>
		</g>
	</g>
	<g>
		<g>
			<path fill="#FFFFFF" d="M36.956,37.533c22.297,37.789,56.727,66.183,86.013,98.224c33.801,36.98,67.147,74.232,103.081,109.193
				c6.472,6.296,16.38-3.596,9.9-9.9c-35.508-34.544-69.03-71.047-102-108c-28.497-31.938-62.91-59.306-84.905-96.583
				C44.461,22.7,32.357,29.74,36.956,37.533L36.956,37.533z"/>
		</g>
	</g>
	<g>
		<g>
			<path fill="#FFFFFF" d="M241.05,18.05c-7.544,8.939-12.321,19.649-19.107,29.111c-7.492,10.446-16.673,19.933-25.37,29.368
				c-8.787,9.532-17.733,18.916-26.396,28.562c-9.045,10.072-17.411,20.736-26.374,30.888c-17.503,19.825-36.007,38.74-54.4,57.731
				c-8.975,9.268-17.924,18.561-26.75,27.97c-4.614,4.92-9.179,9.886-13.702,14.891c-3.732,4.131-7.241,8.33-10.9,12.479
				c-5.946,6.744,3.917,16.685,9.899,9.9c3.271-3.71,6.359-7.419,9.67-11.114c4.501-5.022,9.074-9.979,13.674-14.912
				c8.798-9.434,17.754-18.719,26.724-27.988c18.389-19.004,36.866-37.929,54.46-57.678c8.598-9.651,16.596-19.804,25.133-29.498
				c8.977-10.193,18.369-20.014,27.603-29.972c8.832-9.525,17.483-19.215,25.583-29.375c7.616-9.554,12.299-21.157,20.153-30.464
				C256.732,21.097,246.881,11.142,241.05,18.05L241.05,18.05z"/>
		</g>
	</g>
</g>
</svg>
