<?xml version="1.0" encoding="utf-8"?>
<!-- Generator: Adobe Illustrator 15.1.0, SVG Export Plug-In . SVG Version: 6.00 Build 0)  -->
<!DOCTYPE svg PUBLIC "-//W3C//DTD SVG 1.1//EN" "http://www.w3.org/Graphics/SVG/1.1/DTD/svg11.dtd">
<svg version="1.1" id="Layer_1" xmlns="http://www.w3.org/2000/svg" xmlns:xlink="http://www.w3.org/1999/xlink" x="0px" y="0px"
	 width="288px" height="288px" viewBox="0 0 288 288" enable-background="new 0 0 288 288" xml:space="preserve">
<g id="Layer_3">
	<circle fill="#EC008C" cx="142.657" cy="148.662" r="132"/>
</g>
<g id="Layer_2">
	<g>
		<g>
			<path fill="#FFFFFF" d="M46.722,213.246c2.841-1.234,5.9-0.407,8.802,0.161c3.14,0.614,6.226,0.678,9.416,0.678
				c7.902,0,15.786,0.212,23.683,0.463c15.756,0.501,31.472,0.91,47.223,0.042c15.517-0.855,30.884-1.957,46.437-1.271
				c13.348,0.588,26.854,0.504,40.15,1.61c6.945,0.578,17.078,2.505,20.443-5.401c3.251-7.637,2.33-16.696,2.861-24.814
				c0.451-6.913,2.025-19.877-6.868-22.031c-12.19-2.953-25.088-0.496-37.425-0.41c1.125,1.478,2.25,2.955,3.375,4.432
				c1.089-3.608,1.09-6.858,0.361-10.535c-0.32-1.609-1.896-2.438-3.375-2.568c-4.289-0.386-12.978,3.258-16.318,0.303
				c0.342,0.824,0.684,1.648,1.025,2.475c0.012-1.893,0.978-3.15-0.117-5.02c-0.926-1.582-3.391-3.811-5.203-4.295
				c-0.654-0.177-1.271-0.28-1.951-0.223c1.176-0.102,0.744-4.161,0.766-4.919c0.104-3.931-0.982-7.811-0.125-11.719
				c-0.814,0.814-1.63,1.629-2.443,2.444c0.843-0.121,1.687-0.241,2.529-0.361c3.48-0.497,3.221-6.038,0-6.75
				c-3.408-0.754-6.482-0.759-9.812,0.361c1.477,1.125,2.954,2.25,4.431,3.375c0.102-6.038,0.932-12.034,0.361-18.07
				c-1.477,1.125-2.954,2.25-4.432,3.375c1.324,0.199,2.344,0.199,3.668,0c3.908-0.586,2.979-7.145-0.931-6.875
				c-1.233,0.357-2.217-0.024-2.946-1.143c-1.488-1.559-4.492-1.298-5.496,0.708c-0.121,0.241-0.24,0.482-0.361,0.723
				c2.133,0.279,4.265,0.558,6.396,0.836c-1.535-6.135-1.711-12.066-5.74-17.257c-3.752-4.836-8.534-8.718-13.938-11.579
				c0.578,1.007,1.155,2.015,1.732,3.022c0.363-3.766-1.562-6.881-1.978-10.541c-0.354-3.128,1.455-6.288-0.307-9.296
				c-0.3-0.512-0.828-1.072-1.347-1.366c-0.445-0.253-2.271-1.668-1.906-0.805c-0.561-1.332-0.297-3.844-0.426-5.243
				c-0.237-2.597-0.305-5.208-0.543-7.806c-0.336-3.67-6.08-5.074-6.875-0.931c-1.142,5.95-2.415,11.697-1.446,17.763
				c0.815-1.436,1.63-2.871,2.444-4.306c-1.376,0.286-2.599,0.798-3.976,1.084c-2.604,0.542-3.345,4.093-1.544,5.85
				c2.429,2.37,0.772,8.358-0.373,11.031c-1.555,3.629-6.002,5.7-8.882,8.199c-6.066,5.263-9.533,12.542-10.799,20.372
				c1.125-0.856,2.25-1.713,3.375-2.569c-3.968,0.465-6.896,2.4-7.5,6.574c-0.644,4.456,1.729,8.979,0.872,13.343
				c1.435-0.814,2.87-1.629,4.306-2.444c-4.428-0.788-12.632,1.882-10.823,8.033c0.854,2.905,2.181,5.309,2.436,8.39
				c0.318,3.839,0.266,7.925-0.617,11.683c1.435-0.813,2.87-1.629,4.306-2.443c-8.07-1.209-11.794,2.842-10.449,10.811
				c1.125-1.478,2.25-2.955,3.375-4.432c-6.891-0.665-13.617-0.173-20.447,0.85c-1.913,0.286-2.874,2.631-2.444,4.307
				c0.424,1.654,0.29,3.177,0.236,4.851c1.167-1.167,2.333-2.333,3.5-3.5c-13.256,0.082-26.517,1.714-39.755,0.361
				c-1.41-0.146-3.147,1.164-3.375,2.569c-1.43,8.811-1.185,17.623-0.599,26.498c0.248,3.752,0.629,7.432,0.394,11.188
				c-0.198,3.151-0.837,6.644,0.205,9.711c1.444,4.249,8.207,2.425,6.75-1.86c-0.804-2.365-0.132-5.408,0.045-7.851
				c0.231-3.196-0.046-6.313-0.276-9.505c-0.631-8.736-1.179-17.633,0.231-26.321c-1.125,0.856-2.25,1.713-3.375,2.569
				c13.238,1.353,26.499-0.279,39.755-0.361c1.954-0.012,3.438-1.584,3.5-3.5c0.075-2.332,0.094-4.443-0.486-6.712
				c-0.815,1.437-1.63,2.87-2.444,4.306c6.2-0.929,12.34-1.201,18.585-0.6c2.463,0.238,3.718-2.398,3.375-4.432
				c-0.404-2.395-0.586-2.562,1.838-2.197c1.826,0.273,3.832-0.428,4.306-2.444c1.038-4.424,1.117-9.027,0.867-13.544
				c-0.097-1.754-0.33-3.522-0.758-5.225c-0.436-1.732-3.421-5.107,0.284-4.447c1.763,0.313,3.914-0.45,4.306-2.444
				c0.41-2.091-1.417-14.626-0.122-14.778c1.435-0.168,3.11-0.931,3.375-2.569c0.869-5.373,2.608-10.195,6.141-14.401
				c3.23-3.847,7.912-6.021,11.108-9.843c4.466-5.341,6.413-16.893,1.006-22.169c-0.515,1.95-1.03,3.9-1.544,5.85
				c1.376-0.286,2.599-0.798,3.976-1.084c2.014-0.419,2.729-2.522,2.444-4.306c-0.75-4.7,0.565-9.451,1.446-14.041
				c-2.292-0.311-4.583-0.621-6.875-0.931c0.357,3.885,0.625,7.798,0.769,11.695c0.091,2.465,0.648,5.09,2.801,6.556
				c0.732,0.499,1.482,0.93,2.259,1.355c-1.489-0.814-1.122,2.372-1.257,3.485c-0.514,4.212,2.33,7.858,1.933,11.964
				c-0.11,1.156,0.736,2.494,1.734,3.022c4.467,2.366,8.264,5.422,11.563,9.25c3.704,4.295,3.588,10.172,4.897,15.404
				c0.707,2.831,5.028,3.571,6.396,0.836c0.12-0.241,0.24-0.482,0.361-0.723c-1.834,0.236-3.666,0.472-5.498,0.708
				c2.201,2.305,4.687,3.414,7.896,3.193c-0.311-2.292-0.62-4.583-0.931-6.875c0.019,0,0.036,0,0.055,0
				c-2.034-0.305-4.666,0.883-4.431,3.375c0.568,6.036-0.26,12.032-0.361,18.07c-0.037,2.186,2.278,4.099,4.432,3.375
				c2.144-0.721,3.853-0.856,6.09-0.361c0-2.25,0-4.5,0-6.75c-0.844,0.121-1.688,0.241-2.53,0.361
				c-1.118,0.16-2.212,1.384-2.444,2.444c-1.244,5.674-0.215,11.758-0.203,17.535c0.006,2.102,0.596,4.701,2.178,6.208
				c0.677,0.644,1.25,1.187,2.158,1.483c1.112,0.365,2.371,0.996,1.104-0.137c0.235,0.184,0.472,0.365,0.708,0.549
				c1.102,1.116,1.393,1.02,0.876-0.295c-0.248,0.952-0.435,1.702-0.44,2.691c-0.015,2.079,1.85,3.328,3.435,4.284
				c5.392,3.253,13.14-0.575,18.858-0.062c-1.125-0.856-2.25-1.713-3.375-2.569c0.49,2.473,0.358,4.429-0.361,6.812
				c-0.656,2.178,1.14,4.446,3.375,4.432c11.563-0.082,22.943-1.724,34.462-0.041c2.228,0.324,2.18,0.682,2.69,2.81
				c0.488,2.039,0.411,4.256,0.412,6.337c0.004,4.119-0.521,8.217-0.587,12.332c-0.058,3.589-0.142,7.175-0.64,10.734
				c-0.252,1.804-0.602,3.732-1.318,5.416c-0.72,1.69-2.383,1.463-4.017,1.537c-4.509,0.203-9.076-0.4-13.564-0.759
				c-5.737-0.457-11.538-0.146-17.295-0.352c-13.556-0.482-27.026-1.591-40.604-1.132c-13.584,0.459-27.115,1.824-40.711,2.008
				c-13.847,0.186-27.711-0.514-41.549-0.92c-6.994-0.205-14.443,0.629-21.339-0.586c-5.113-0.898-9.307-1.577-14.196,0.545
				C39.058,208.995,42.626,215.023,46.722,213.246L46.722,213.246z"/>
		</g>
	</g>
	<g>
		<g>
			<path fill="#FFFFFF" d="M89.539,202.994c3.61-1.514,8.028-0.219,11.816,0.098c4.363,0.363,8.746,0.471,13.122,0.531
				c8.877,0.123,17.756-0.242,26.633-0.268c8.708-0.024,17.417,0.101,26.126,0.024c9.656-0.083,19.637-1.478,29.226-0.024
				c4.414,0.668,6.312-6.076,1.861-6.75c-9.109-1.379-18.255-0.469-27.417-0.277c-9.295,0.193-18.594,0.039-27.887,0.025
				c-9.515-0.013-19.026,0.336-28.542,0.27c-5.001-0.035-9.997-0.271-14.98-0.688c-4.043-0.336-7.939-1.316-11.819,0.309
				C83.579,197.961,85.376,204.736,89.539,202.994L89.539,202.994z"/>
		</g>
	</g>
	<g>
		<g>
			<path fill="#FFFFFF" d="M187.882,165.688c-1.741,3.354-1.69,7.541-1.739,11.227c-0.06,4.246,0.155,8.628,1.025,12.794
				c0.923,4.417,7.67,2.543,6.75-1.86c-0.675-3.229-0.734-6.595-0.775-9.882c-0.033-2.536-0.432-6.403,0.784-8.743
				C196.004,165.223,189.963,161.682,187.882,165.688L187.882,165.688z"/>
		</g>
	</g>
	<g>
		<g>
			<path fill="#FFFFFF" d="M181.395,189.5c-0.131-7.182-2.396-15.273,0.236-22.198c1.607-4.228-5.162-6.036-6.75-1.86
				c-2.891,7.603-0.629,16.201-0.486,24.06C174.477,194.009,181.477,194.018,181.395,189.5L181.395,189.5z"/>
		</g>
	</g>
	<g>
		<g>
			<path fill="#FFFFFF" d="M161.509,167.663c2.259,7.594-0.562,16.022,0.724,23.853c0.729,4.445,7.475,2.553,6.75-1.861
				c-1.299-7.911,1.604-16.029-0.724-23.853C166.975,161.486,160.219,163.325,161.509,167.663L161.509,167.663z"/>
		</g>
	</g>
	<g>
		<g>
			<path fill="#FFFFFF" d="M156.457,189.5c-0.134-7.102-2.102-14.562,0.236-21.477c1.449-4.287-5.312-6.112-6.75-1.86
				c-2.57,7.601-0.633,15.549-0.486,23.337C149.542,194.009,156.542,194.018,156.457,189.5L156.457,189.5z"/>
		</g>
	</g>
	<g>
		<g>
			<path fill="#FFFFFF" d="M127.05,167.816c-0.45,7.51-0.726,15.211,0.848,22.613c0.938,4.414,7.686,2.543,6.75-1.861
				c-1.434-6.748-1.008-13.908-0.598-20.752C134.32,163.307,127.319,163.332,127.05,167.816L127.05,167.816z"/>
		</g>
	</g>
	<g>
		<g>
			<path fill="#FFFFFF" d="M116.332,167.247c-2.563,7.026-0.255,15.017-0.125,22.253c0.081,4.509,7.081,4.518,7,0
				c-0.117-6.525-2.425-14.086-0.125-20.393C124.632,164.857,117.866,163.042,116.332,167.247L116.332,167.247z"/>
		</g>
	</g>
	<g>
		<g>
			<path fill="#FFFFFF" d="M102.96,166.523c-1.857,7.801,0.136,16.162,0.236,24.061c0.058,4.511,7.058,4.518,7,0
				c-0.091-7.158-2.164-15.154-0.486-22.198C110.755,163.997,104.006,162.135,102.96,166.523L102.96,166.523z"/>
		</g>
	</g>
	<g>
		<g>
			<path fill="#FFFFFF" d="M90.311,168.386c1.111,7.726,2.255,15.479,1.321,23.282c-0.536,4.477,6.47,4.425,7,0
				c1.008-8.415-0.374-16.82-1.571-25.145C96.421,162.07,89.676,163.973,90.311,168.386L90.311,168.386z"/>
		</g>
	</g>
	<g>
		<g>
			<path fill="#FFFFFF" d="M126.936,111.684c9.214-0.153,18.899-2.881,27.982-0.487c4.37,1.152,6.223-5.601,1.861-6.75
				c-9.829-2.59-19.897,0.072-29.844,0.237C122.426,104.759,122.419,111.759,126.936,111.684L126.936,111.684z"/>
		</g>
	</g>
	<g>
		<g>
			<path fill="#FFFFFF" d="M161.745,134.566c0.292,5.549-0.312,11.079-0.361,16.625c-0.04,4.516,6.96,4.512,7,0
				c0.05-5.547,0.653-11.077,0.361-16.625C168.509,130.076,161.508,130.053,161.745,134.566L161.745,134.566z"/>
		</g>
	</g>
	<g>
		<g>
			<path fill="#FFFFFF" d="M152.35,134.566c-0.026,4.701-0.336,9.395-0.363,14.096c-0.024,4.516,6.976,4.513,7,0
				c0.027-4.701,0.337-9.395,0.363-14.096C159.374,130.051,152.374,130.053,152.35,134.566L152.35,134.566z"/>
		</g>
	</g>
	<g>
		<g>
			<path fill="#FFFFFF" d="M141.867,133.843c0.062,3.945,1.118,8.202,0.125,12.08c-1.12,4.376,5.632,6.231,6.75,1.861
				c1.179-4.604,0.197-9.278,0.125-13.941C148.797,129.333,141.796,129.327,141.867,133.843L141.867,133.843z"/>
		</g>
	</g>
	<g>
		<g>
			<path fill="#FFFFFF" d="M134.041,132.913c-0.831,2.317-0.481,4.922-0.217,7.308c0.233,2.096,1.293,5.81,0.208,7.759
				c-2.197,3.947,3.85,7.478,6.044,3.533c1.398-2.514,1.339-5.359,1.097-8.146c-0.227-2.625-1.295-6.05-0.383-8.594
				C142.318,130.514,135.553,128.696,134.041,132.913L134.041,132.913z"/>
		</g>
	</g>
	<g>
		<g>
			<path fill="#FFFFFF" d="M124.158,133.843c0,5.903,0,11.806,0,17.709c0,4.515,7,4.515,7,0c0-5.903,0-11.806,0-17.709
				C131.158,129.329,124.158,129.329,124.158,133.843L124.158,133.843z"/>
		</g>
	</g>
	<g>
		<g>
			<path fill="#FFFFFF" d="M116.207,134.205c0.023,4.822,0.337,9.636,0.362,14.458c0.023,4.513,7.023,4.515,7,0
				c-0.025-4.822-0.339-9.636-0.362-14.458C123.185,129.692,116.185,129.689,116.207,134.205L116.207,134.205z"/>
		</g>
	</g>
	<g>
		<g>
			<path fill="#FFFFFF" d="M208.973,195.893c2.375-0.691,5.655,0.268,8.094,0.455c4.562,0.351,9.121,0.62,13.699,0.658
				c4.516,0.037,4.512-6.963,0-7c-5.151-0.042-10.279-0.396-15.412-0.791c-2.736-0.21-5.537-0.859-8.242-0.072
				C202.787,190.402,204.629,197.159,208.973,195.893L208.973,195.893z"/>
		</g>
	</g>
	<g>
		<g>
			<path fill="#FFFFFF" d="M54.67,194.143c2.412,2.147,6.129,1.633,9.124,1.51c5.802-0.238,11.661-0.27,17.457,0.109
				c4.509,0.295,4.48-6.707,0-7c-5.07-0.332-10.137-0.216-15.214-0.197c-1.09,0.004-2.182,0.086-3.271,0.131
				c-0.717,0.027-1.435,0.044-2.153,0.046c-1.105,0.014-2.208-0.63-0.992,0.452C56.261,186.202,51.292,191.136,54.67,194.143
				L54.67,194.143z"/>
		</g>
	</g>
	<g>
		<g>
			<path fill="#FFFFFF" d="M55.673,182.186c8.384-0.117,16.95-1.936,25.312-0.781c4.413,0.607,6.316-6.137,1.861-6.75
				c-9.086-1.254-18.07,0.404-27.173,0.531C51.163,175.247,51.157,182.247,55.673,182.186L55.673,182.186z"/>
		</g>
	</g>
	<g>
		<g>
			<path fill="#FFFFFF" d="M205.911,183.824c8.091,0.285,16.182,0.023,24.274,0c4.514-0.014,4.515-7.014,0-7
				c-8.094,0.023-16.185,0.285-24.274,0C201.395,176.664,201.41,183.665,205.911,183.824L205.911,183.824z"/>
		</g>
	</g>
</g>
</svg>
